<svg width="512" height="512" viewBox="0 0 512 512" fill="none" xmlns="http://www.w3.org/2000/svg">
<path d="M61 0H137.6V511.371H61V0Z" fill="#0664FA"/>
<path d="M137.6 0L214.2 0V511.371H137.6V0Z" fill="#0083FC"/>
<path d="M367.4 0H444V511.371H367.4V0Z" fill="#01D8F9"/>
<path d="M290.8 0H367.4V511.371H290.8V0Z" fill="#00BFFA"/>
<path d="M214.2 0H290.8V511.371H214.2V0Z" fill="#00A1FC"/>
<path d="M266.157 146.386C265.278 139.647 263.594 132.909 261.104 126.171C260.225 124.267 260.811 122.802 262.861 121.776L290.767 107.274C291.938 106.688 293.11 106.615 294.282 107.055C295.454 107.494 296.04 108.593 296.04 110.351C296.919 124.706 303.364 138.402 315.376 151.439C327.534 164.477 342.476 178.026 360.2 192.089C412.202 234.13 426.631 273.461 403.486 310.082C392.939 326.781 378.877 336.889 361.299 340.404C343.867 343.92 320.283 337.108 290.547 319.97C282.051 314.989 274.214 310.888 267.036 307.665C265.718 307.226 265.059 306.127 265.059 304.369C265.498 286.352 266.304 266.503 267.476 244.823C268.794 223.144 269.014 196.703 268.135 165.502C267.842 159.496 267.183 153.124 266.157 146.386Z" fill="white"/>
<path fill-rule="evenodd" clip-rule="evenodd" d="M512 0H0V512H512V0ZM189.253 210.546C187.056 208.349 184.419 208.495 181.343 210.985C171.821 219.042 159.663 222.924 144.868 222.631C124.214 222.631 107.661 217.064 95.21 205.932C82.9053 194.799 76.7529 179.638 76.7529 160.448C76.7529 141.259 83.4912 126.391 96.9678 115.844C110.444 105.15 126.997 100.316 146.626 101.342C164.937 101.635 180.244 109.618 192.549 125.292C204.854 140.819 212.104 159.276 214.302 180.663L219.575 237.353C221.479 256.103 223.311 274.926 225.068 293.822C225.068 295.141 224.775 296.093 224.189 296.679C223.75 297.265 222.944 297.631 221.772 297.777C200.093 299.535 177.827 315.282 154.976 345.019C152.925 347.802 152.998 350.072 155.195 351.83C157.539 353.441 159.956 353.002 162.446 350.512C176.948 336.449 198.848 335.131 228.145 346.557C229.609 347.143 230.342 348.095 230.342 349.413C234.15 388.964 230.415 420.531 219.136 444.115C217.671 446.605 217.817 448.51 219.575 449.828C221.333 451.146 223.237 450.854 225.288 448.949C236.274 438.549 244.404 427.123 249.678 414.672C255.098 402.221 258.906 386.767 261.104 368.31C261.25 367.138 261.836 366.259 262.861 365.673C264.033 365.087 265.205 365.16 266.377 365.893C296.699 382.738 322.847 386.107 344.819 376C366.792 366.039 389.058 345.751 411.616 315.136C431.392 287.89 442.158 259.398 443.916 229.662C445.82 199.926 429.414 170.702 394.697 141.991C377.266 127.929 364.668 114.306 356.904 101.122C349.287 87.792 350.679 77.3916 361.079 69.9209C364.009 67.5771 364.521 65.2334 362.617 62.8896C360.713 60.3994 357.637 60.1064 353.389 62.0107L258.247 111.449C256.196 112.621 254.658 112.182 253.633 110.131C245.869 96.9473 235.103 85.5215 221.333 75.8535C207.563 66.1855 190.571 61.1318 170.356 60.6924C136.958 60.6924 110.518 69.7012 91.0352 87.7188C71.5527 105.736 61.8115 127.343 61.8115 152.538C61.8115 177.587 69.5752 197.436 85.1025 212.084C100.63 226.586 120.112 233.544 143.55 232.958C151.313 232.812 159.004 231.933 166.621 230.321C174.238 228.563 180.977 225.048 186.836 219.774C190.645 215.819 191.45 212.743 189.253 210.546Z" fill="white"/>
</svg>
